<svg xmlns="http://www.w3.org/2000/svg" xmlns:xlink="http://www.w3.org/1999/xlink" width="500" zoomAndPan="magnify" viewBox="0 0 375 374.999991" height="500" preserveAspectRatio="xMidYMid meet" version="1.0"><defs><g/><clipPath id="ed66072a80"><path d="M 37.5 12.792969 L 356.25 12.792969 L 356.25 208.542969 L 37.5 208.542969 Z M 37.5 12.792969 " clip-rule="nonzero"/></clipPath></defs><g clip-path="url(#ed66072a80)"><path fill="#3c3c3b" d="M 295.019531 99.90625 L 196.511719 100.074219 L 155.917969 12.792969 L 37.515625 207.285156 L 39.230469 208.332031 L 87.171875 129.578125 L 104.101562 101.753906 L 155.683594 17.039062 L 194.875 101.316406 L 194.875 102.085938 L 195.230469 102.085938 L 243.527344 205.953125 L 152.28125 206.644531 C 152.265625 203.472656 152.234375 200.160156 152.3125 196.851562 C 152.386719 193.476562 152.457031 190.101562 152.535156 186.875 C 153.613281 181.941406 154.390625 176.945312 154.898438 171.90625 C 155.25 168.4375 155.351562 164.964844 155.015625 161.480469 C 154.949219 160.8125 155.027344 160.078125 155.21875 159.433594 C 155.742188 157.722656 156.347656 156.027344 156.953125 154.339844 C 157.359375 153.191406 157.386719 153.179688 158.585938 153.171875 C 159.75 153.171875 160.734375 152.757812 161.574219 151.988281 C 161.957031 151.636719 162.121094 151.210938 161.878906 150.703125 C 161.65625 150.25 161.109375 149.96875 160.566406 150.167969 C 159.992188 150.382812 159.464844 150.734375 158.921875 151.019531 C 158.691406 151.140625 158.46875 151.269531 158.085938 151.480469 C 158.789062 149.632812 159.457031 148 160.03125 146.34375 C 160.980469 143.636719 161.53125 140.835938 161.90625 137.992188 C 161.980469 137.4375 162.191406 137.121094 162.714844 136.828125 C 165.207031 135.421875 166.941406 133.351562 167.746094 130.578125 C 168.558594 127.769531 168.109375 124.984375 167.449219 122.222656 C 167.414062 122.050781 167.328125 121.871094 167.222656 121.722656 C 166.980469 121.375 166.648438 121.40625 166.457031 121.78125 C 166.375 121.941406 166.34375 122.132812 166.285156 122.296875 C 165.195312 125.605469 164.109375 128.902344 163.015625 132.210938 C 162.9375 132.453125 162.792969 132.675781 162.566406 133.113281 C 162.621094 131.203125 162.691406 129.554688 162.691406 127.910156 C 162.683594 126.863281 162.785156 125.898438 163.46875 125.023438 C 163.792969 124.605469 163.957031 124.050781 164.160156 123.539062 C 165.648438 119.832031 165.164062 116.214844 163.582031 112.667969 C 163.320312 112.082031 162.976562 111.527344 162.613281 110.863281 C 161.230469 112.789062 160.101562 114.652344 159.488281 116.800781 C 159.054688 118.316406 158.992188 119.859375 159.527344 121.34375 C 160.074219 122.851562 160.734375 124.324219 161.421875 125.777344 C 161.675781 126.324219 161.894531 126.820312 161.875 127.4375 C 161.824219 128.796875 161.824219 130.144531 161.773438 131.507812 C 161.746094 132.152344 161.65625 132.796875 161.59375 133.4375 C 161.511719 133.445312 161.421875 133.464844 161.339844 133.476562 C 161.039062 132.4375 160.738281 131.394531 160.453125 130.355469 C 159.769531 127.921875 159.101562 125.488281 158.425781 123.054688 C 158.355469 122.8125 158.273438 122.558594 158.136719 122.34375 C 157.929688 122.003906 157.53125 122.023438 157.339844 122.367188 C 157.253906 122.519531 157.207031 122.710938 157.1875 122.882812 C 156.722656 126.328125 156.664062 129.738281 157.960938 133.070312 C 158.640625 134.828125 159.464844 136.402344 161.179688 137.445312 C 160.886719 139.191406 160.597656 140.910156 160.273438 142.808594 C 159.960938 142.457031 159.808594 142.261719 159.628906 142.089844 C 158.949219 141.40625 158.125 141.511719 157.820312 142.425781 C 157.621094 143.027344 157.617188 143.726562 157.710938 144.355469 C 157.832031 145.148438 158.074219 145.9375 158.40625 146.664062 C 158.6875 147.292969 158.640625 147.816406 158.40625 148.433594 C 157.265625 151.371094 156.167969 154.320312 155.046875 157.269531 C 154.988281 157.414062 154.90625 157.550781 154.726562 157.886719 C 154.632812 157.429688 154.5625 157.191406 154.53125 156.949219 C 153.675781 150.523438 152.808594 144.097656 151.972656 137.667969 C 151.433594 133.488281 150.902344 129.304688 150.96875 125.082031 C 151.023438 121.859375 151.152344 118.636719 151.261719 115.410156 C 151.285156 114.8125 151.363281 114.21875 151.414062 113.597656 C 155.308594 114.839844 157.996094 113.589844 159.226562 110.066406 C 158.222656 110.527344 157.21875 110.984375 156.21875 111.445312 C 156.175781 111.375 156.125 111.308594 156.074219 111.246094 C 157.5 110.335938 158.15625 108.996094 158.308594 107.378906 C 158.449219 105.902344 158.105469 103.835938 157.480469 102.863281 C 157.117188 103.550781 156.820312 104.214844 156.4375 104.832031 C 155.742188 105.953125 155.007812 107.046875 154.269531 108.132812 C 154.152344 108.304688 153.925781 108.398438 153.6875 108.570312 C 154.027344 104.355469 153.089844 100.519531 151.566406 96.601562 C 151.121094 97.710938 150.738281 98.613281 150.386719 99.539062 C 149.273438 102.480469 148.164062 105.429688 148.488281 108.8125 C 146.574219 107.628906 145.59375 105.742188 144.171875 103.964844 C 143.816406 106.042969 144.050781 107.855469 144.414062 109.773438 C 143.949219 109.457031 143.605469 109.214844 143.222656 108.945312 C 143.144531 109.164062 143.070312 109.269531 143.09375 109.359375 C 143.515625 110.976562 144.164062 112.46875 145.523438 113.558594 C 146.121094 114.035156 146.773438 114.328125 147.542969 114.238281 C 148.476562 114.136719 149.398438 114.015625 150.433594 113.890625 C 150.386719 114.789062 150.363281 115.660156 150.292969 116.53125 C 149.757812 122.726562 149.84375 128.902344 150.65625 135.074219 C 151.6875 143.027344 152.789062 150.976562 153.765625 158.9375 C 154.101562 161.695312 154.300781 164.5 154.25 167.269531 C 154.140625 172.027344 153.484375 176.742188 152.667969 181.425781 C 152.617188 181.722656 152.566406 182.023438 152.515625 182.316406 C 152.476562 182.550781 152.371094 182.773438 152.292969 183.003906 C 152.230469 182.175781 152.132812 181.359375 152.007812 180.558594 C 151.40625 176.648438 150.15625 172.925781 148.8125 169.308594 C 149.195312 168.714844 149.621094 168.265625 149.8125 167.730469 C 150.054688 167.054688 150.1875 166.320312 150.222656 165.609375 C 150.242188 165.136719 149.941406 164.683594 149.375 164.605469 C 148.851562 164.542969 148.550781 164.875 148.359375 165.300781 C 148.15625 165.742188 148.007812 166.210938 147.753906 166.867188 C 147.078125 165.339844 146.480469 163.976562 145.957031 162.785156 C 146.441406 161.761719 146.925781 160.933594 147.226562 160.046875 C 147.804688 158.363281 147.953125 156.601562 147.835938 154.828125 C 147.621094 151.53125 147.039062 148.289062 145.9375 145.160156 C 145.84375 144.886719 145.746094 144.59375 145.566406 144.363281 C 145.460938 144.230469 145.191406 144.152344 145.007812 144.171875 C 144.878906 144.183594 144.707031 144.394531 144.675781 144.542969 C 144.617188 144.828125 144.636719 145.121094 144.625 145.421875 C 144.597656 146.300781 144.617188 147.179688 144.546875 148.058594 C 144.351562 150.652344 144.242188 153.25 144.546875 155.847656 C 144.613281 156.390625 144.566406 156.945312 144.542969 157.492188 C 144.535156 157.664062 144.421875 157.828125 144.292969 158.1875 C 144.128906 157.671875 144.027344 157.363281 143.929688 157.050781 C 142.828125 153.464844 142.398438 149.738281 141.722656 146.070312 C 141.589844 145.363281 141.699219 144.769531 142.03125 144.183594 C 143.664062 141.335938 143.648438 138.421875 142.527344 135.402344 C 141.730469 133.242188 140.417969 131.386719 139.226562 129.457031 C 139.148438 129.335938 138.957031 129.28125 138.773438 129.164062 C 138.589844 130.222656 138.453125 131.183594 138.25 132.132812 C 137.777344 134.285156 137.429688 136.457031 137.5625 138.675781 C 137.714844 141.242188 138.421875 143.578125 140.449219 145.339844 C 140.789062 145.632812 140.871094 145.980469 140.945312 146.390625 C 141.519531 149.59375 142.113281 152.796875 142.691406 156.007812 C 142.730469 156.222656 142.769531 156.441406 142.800781 156.65625 C 142.398438 156.171875 142.132812 155.65625 141.882812 155.136719 C 140.558594 152.3125 139.238281 149.492188 137.914062 146.675781 C 137.804688 146.441406 137.722656 146.179688 137.554688 146 C 137.402344 145.839844 137.136719 145.703125 136.917969 145.714844 C 136.765625 145.71875 136.546875 145.96875 136.496094 146.140625 C 136.375 146.5625 136.273438 147.007812 136.285156 147.441406 C 136.34375 149.269531 136.355469 151.101562 136.554688 152.917969 C 136.835938 155.460938 137.984375 157.625 139.976562 159.238281 C 141.394531 160.390625 142.929688 161.402344 144.402344 162.492188 C 144.6875 162.695312 145.03125 162.925781 145.160156 163.21875 C 146.542969 166.488281 147.886719 169.78125 149.234375 173.058594 C 149.324219 173.285156 149.335938 173.53125 149.40625 173.871094 C 149.003906 173.664062 148.722656 173.5 148.429688 173.359375 C 147.964844 173.136719 147.503906 173.105469 147.105469 173.488281 C 146.734375 173.835938 146.753906 174.285156 146.875 174.714844 C 147.074219 175.429688 147.523438 175.972656 148.175781 176.269531 C 148.855469 176.589844 149.597656 176.792969 150.394531 177.078125 C 150.496094 177.480469 150.679688 177.972656 150.738281 178.476562 C 151.789062 187.296875 151.089844 192.800781 151.0625 203.453125 C 151.054688 205.113281 151.175781 206.835938 151.210938 208.542969 L 167.4375 208.542969 L 244.089844 207.96875 L 244.453125 207.96875 L 244.605469 208.300781 L 245.3125 207.96875 L 356.234375 207.96875 Z M 161.199219 150.855469 C 161.007812 151.875 160.160156 152.320312 158.265625 152.378906 C 159.246094 151.675781 159.980469 150.875 161.199219 150.855469 Z M 166.789062 123.34375 C 167.503906 125.742188 167.707031 128.101562 167.074219 130.457031 C 166.507812 132.59375 165.144531 134.160156 163.363281 135.433594 C 164.023438 134.457031 164.671875 133.484375 165.328125 132.507812 C 165.269531 132.453125 165.214844 132.402344 165.15625 132.351562 C 164.371094 132.929688 163.753906 133.699219 162.867188 134.496094 C 164.226562 130.65625 165.507812 127 166.789062 123.34375 Z M 161.839844 123.082031 C 161.664062 122.699219 161.484375 122.316406 161.304688 121.933594 C 161.253906 121.941406 161.210938 121.960938 161.160156 121.964844 C 161.300781 122.667969 161.445312 123.367188 161.59375 124.070312 C 160.40625 121.863281 159.519531 119.585938 160.316406 117.085938 C 160.839844 115.457031 161.585938 113.894531 162.25 112.304688 C 162.28125 112.21875 162.394531 112.167969 162.542969 112.046875 C 163.792969 115.378906 164.886719 118.652344 163.78125 122.214844 C 163.691406 122.507812 163.570312 122.792969 163.460938 123.082031 C 163.410156 123.070312 163.351562 123.054688 163.308594 123.050781 L 163.308594 122.011719 C 163.25 121.984375 163.199219 121.953125 163.148438 121.929688 C 163.058594 122.082031 162.976562 122.234375 162.878906 122.394531 C 162.824219 122.378906 162.773438 122.367188 162.707031 122.355469 L 162.707031 119.265625 C 162.644531 119.265625 162.574219 119.257812 162.511719 119.257812 C 162.34375 120.527344 162.179688 121.800781 162.015625 123.070312 C 161.960938 123.074219 161.90625 123.082031 161.839844 123.082031 Z M 159.578125 133.101562 C 159.507812 133.125 159.4375 133.160156 159.363281 133.191406 C 159.585938 133.789062 159.800781 134.394531 160.019531 135 C 159.941406 135.019531 159.867188 135.039062 159.78125 135.058594 C 157.980469 131.765625 157.175781 128.273438 157.902344 124.484375 C 159.386719 128.042969 159.746094 131.960938 161.382812 135.476562 C 161.3125 135.507812 161.242188 135.542969 161.179688 135.574219 C 160.648438 134.746094 160.113281 133.921875 159.578125 133.101562 Z M 158.707031 142.324219 C 159.761719 143.203125 159.867188 144.734375 158.96875 146.546875 C 158.699219 145.046875 157.761719 143.796875 158.707031 142.324219 Z M 156.894531 112.113281 C 156.09375 113.085938 155.089844 113.570312 153.664062 113.355469 C 154.632812 112.390625 155.746094 112.21875 156.894531 112.113281 Z M 153.484375 109.632812 C 155.21875 108.410156 156.320312 106.699219 157.21875 104.824219 C 157.257812 104.730469 157.347656 104.652344 157.519531 104.441406 C 157.660156 105.570312 157.921875 106.519531 157.0625 107.441406 C 156.351562 108.199219 155.835938 109.132812 155.230469 109.984375 C 155.320312 110.054688 155.402344 110.125 155.492188 110.195312 C 156.46875 109.582031 156.925781 108.546875 157.539062 107.476562 C 157.316406 109.773438 155.613281 111.347656 153.171875 111.699219 C 153.835938 110.921875 154.535156 110.097656 155.238281 109.285156 C 155.167969 109.207031 155.097656 109.132812 155.027344 109.046875 C 154.414062 109.511719 153.808594 109.976562 153.121094 110.507812 C 153.03125 110.0625 153.230469 109.8125 153.484375 109.632812 Z M 145.109375 111.738281 C 146.078125 112.257812 147.308594 112.316406 147.972656 113.359375 C 146.796875 113.6875 146.070312 113.296875 145.109375 111.738281 Z M 148.992188 111.964844 C 148.289062 111.824219 147.589844 111.691406 147.003906 111.570312 C 146.96875 111.082031 147.058594 110.71875 146.917969 110.5625 C 146.382812 109.964844 146.238281 108.925781 145.078125 108.875 C 144.925781 108.023438 144.757812 107.105469 144.578125 106.074219 C 145.359375 106.941406 145.988281 107.75 146.734375 108.429688 C 147.4375 109.082031 148.25 109.597656 148.945312 110.324219 C 148.25 110.003906 147.550781 109.683594 146.855469 109.367188 C 146.8125 109.4375 146.761719 109.507812 146.714844 109.570312 C 147.511719 110.316406 148.300781 111.054688 149.097656 111.789062 C 149.054688 111.84375 149.023438 111.902344 148.992188 111.964844 Z M 150.042969 107.480469 C 150 107.492188 149.953125 107.507812 149.902344 107.519531 L 149.902344 109.539062 C 149.367188 108.660156 149.1875 107.710938 149.304688 106.730469 C 149.410156 105.894531 149.558594 105.0625 149.761719 104.25 C 150.214844 102.480469 150.71875 100.722656 151.203125 98.964844 C 151.261719 98.765625 151.355469 98.582031 151.535156 98.402344 C 152.183594 102.027344 153.601562 105.570312 152.363281 109.335938 L 152.625 107.09375 C 152.546875 107.0625 152.472656 107.023438 152.386719 106.992188 C 152.152344 107.425781 151.917969 107.863281 151.605469 108.429688 C 151.433594 107.683594 151.292969 107.105469 151.105469 106.304688 C 150.648438 107.246094 150.910156 108.054688 150.675781 109.0625 C 150.40625 108.410156 150.222656 107.945312 150.042969 107.480469 Z M 140.613281 139.648438 C 140.558594 139.65625 140.5 139.664062 140.441406 139.667969 C 140.527344 140.648438 140.613281 141.625 140.699219 142.605469 C 140.621094 142.632812 140.546875 142.664062 140.460938 142.683594 C 140.003906 141.910156 139.539062 141.148438 139.078125 140.375 C 139.027344 140.394531 138.96875 140.414062 138.917969 140.441406 C 139.300781 141.492188 139.679688 142.542969 140.0625 143.59375 C 139.308594 142.878906 138.902344 141.992188 138.710938 141.042969 C 138.480469 139.90625 138.230469 138.726562 138.289062 137.578125 C 138.390625 135.578125 138.722656 133.59375 138.96875 131.597656 C 139.003906 131.363281 139.109375 131.132812 139.238281 130.746094 C 140.914062 133.40625 142.519531 135.921875 142.710938 139.039062 C 142.78125 140.140625 142.691406 141.222656 142.105469 142.394531 L 142.105469 140.210938 C 142.070312 140.191406 142.023438 140.179688 141.984375 140.160156 C 141.8125 140.683594 141.640625 141.199219 141.394531 141.960938 C 141.082031 141.050781 140.851562 140.351562 140.613281 139.648438 Z M 142.0625 159.519531 C 141.691406 159.328125 141.480469 159.257812 141.316406 159.136719 C 138.964844 157.429688 137.554688 155.167969 137.3125 152.238281 C 137.210938 150.957031 137.160156 149.675781 137.097656 148.394531 C 137.082031 148.160156 137.132812 147.910156 137.152344 147.675781 C 137.238281 147.664062 137.324219 147.644531 137.410156 147.632812 C 139.296875 151.585938 141.183594 155.550781 143.089844 159.542969 C 142.496094 158.988281 141.890625 158.421875 141.277344 157.847656 C 141.226562 157.886719 141.175781 157.925781 141.125 157.96875 C 141.398438 158.421875 141.671875 158.875 142.0625 159.519531 Z M 145.128906 160.28125 C 145.117188 160.160156 145.070312 160.046875 145.089844 159.933594 C 145.410156 157.816406 145.25 155.707031 145.210938 153.585938 C 145.171875 151.480469 145.371094 149.359375 145.472656 147.242188 C 145.472656 147.191406 145.550781 147.148438 145.585938 147.097656 C 147.117188 150.34375 147.503906 157.480469 146.1875 160.15625 C 146.25 159.460938 146.3125 158.765625 146.378906 158.066406 C 146.300781 158.050781 146.222656 158.035156 146.15625 158.015625 C 145.855469 158.777344 145.5625 159.535156 145.261719 160.292969 C 145.21875 160.289062 145.171875 160.289062 145.128906 160.28125 Z M 149.367188 165.449219 C 149.742188 166.511719 149.246094 167.316406 148.742188 168.128906 C 148.5 166.652344 148.632812 166.125 149.367188 165.449219 Z M 147.800781 174.042969 C 148.960938 174.378906 149.507812 175.296875 150.285156 176.207031 C 148.820312 176.023438 147.84375 175.15625 147.800781 174.042969 Z M 197.441406 102.078125 L 293.847656 101.921875 L 352.792969 205.949219 L 245.742188 205.949219 Z M 197.441406 102.078125 " fill-opacity="1" fill-rule="nonzero"/></g><g fill="#000000" fill-opacity="1"><g transform="translate(45.374513, 254.504748)"><g><path d="M 13.3125 -0.421875 C 24.863281 -1.300781 52.835938 -12.011719 53.675781 -33.136719 C 53.800781 -38.21875 51.324219 -43.007812 47.082031 -45.863281 C 40.066406 -51.070312 29.359375 -52.332031 19.824219 -49.015625 C 8.777344 -45.234375 1.722656 -38.429688 0.882812 -30.828125 C 0.253906 -26.125 2.519531 -21.460938 6.59375 -19.027344 C 9.535156 -17.304688 12.976562 -16.546875 16.339844 -16.925781 C 16.546875 -16.96875 16.757812 -16.882812 16.882812 -16.714844 C 17.011719 -16.546875 17.050781 -16.339844 17.011719 -16.171875 C 15.328125 -10.835938 13.566406 -5.503906 12.179688 -1.933594 C 12.054688 -1.597656 12.097656 -1.21875 12.304688 -0.882812 C 12.515625 -0.589844 12.851562 -0.421875 13.230469 -0.421875 Z M 19.445312 -16.632812 C 19.613281 -17.136719 20.035156 -17.554688 20.578125 -17.722656 C 23.980469 -18.691406 27.175781 -20.160156 30.070312 -22.09375 C 30.40625 -22.300781 30.617188 -22.679688 30.574219 -23.101562 C 30.574219 -23.476562 30.324219 -23.855469 29.988281 -24.023438 C 29.609375 -24.191406 29.191406 -24.191406 28.855469 -23.941406 C 26.585938 -22.46875 24.148438 -21.253906 21.589844 -20.328125 C 21.378906 -20.242188 21.125 -20.328125 20.957031 -20.496094 C 20.832031 -20.621094 20.746094 -20.875 20.832031 -21.085938 C 23.058594 -28.476562 24.863281 -34.691406 24.90625 -34.777344 C 25.03125 -35.28125 24.820312 -35.824219 24.359375 -36.035156 C 23.941406 -36.289062 23.394531 -36.203125 23.015625 -35.824219 C 21.167969 -33.851562 18.144531 -33.433594 15.835938 -34.859375 C 15.328125 -35.195312 14.65625 -35.027344 14.320312 -34.523438 C 13.984375 -33.976562 14.152344 -33.304688 14.699219 -32.96875 C 16.507812 -31.792969 18.773438 -31.457031 20.832031 -32.046875 C 21.042969 -32.128906 21.292969 -32.089844 21.460938 -31.921875 C 21.589844 -31.792969 21.671875 -31.542969 21.589844 -31.332031 C 20.746094 -28.519531 19.570312 -24.484375 18.269531 -20.203125 C 18.101562 -19.699219 17.640625 -19.320312 17.136719 -19.234375 C 13.902344 -18.691406 10.585938 -19.277344 7.769531 -20.875 C 4.410156 -22.890625 2.5625 -26.710938 3.066406 -30.617188 C 3.78125 -37.339844 10.332031 -43.429688 20.539062 -46.957031 C 29.441406 -50.023438 39.3125 -48.886719 45.78125 -44.101562 C 49.390625 -41.707031 51.535156 -37.589844 51.492188 -33.222656 C 50.777344 -15.289062 27.761719 -5.125 15.875 -2.980469 C 15.664062 -2.941406 15.457031 -3.023438 15.328125 -3.191406 C 15.203125 -3.359375 15.160156 -3.570312 15.203125 -3.78125 C 16.507812 -7.433594 18.019531 -12.054688 19.445312 -16.632812 Z M 19.445312 -16.632812 "/></g></g></g><g fill="#000000" fill-opacity="1"><g transform="translate(96.656503, 254.504748)"><g><path d="M 41.453125 -11.089844 C 41.035156 -11.550781 40.320312 -11.59375 39.898438 -11.171875 C 34.273438 -6.425781 26.753906 -4.703125 19.65625 -6.425781 C 19.488281 -6.46875 19.320312 -6.511719 19.195312 -6.550781 C 18.691406 -6.679688 18.269531 -7.015625 18.019531 -7.519531 C 17.808594 -7.980469 17.765625 -8.527344 17.976562 -8.988281 C 18.648438 -10.5 18.941406 -11.929688 18.355469 -12.683594 C 17.851562 -13.273438 16.96875 -13.441406 16.339844 -12.976562 C 13.816406 -11.761719 12.640625 -10.375 12.808594 -8.777344 C 12.851562 -8.316406 13.0625 -7.855469 13.3125 -7.476562 C 13.734375 -6.804688 13.691406 -6.007812 13.230469 -5.417969 C 12.601562 -4.621094 11.886719 -3.90625 11.089844 -3.316406 C 10.375 -2.855469 9.828125 -2.730469 9.449219 -2.941406 C 8.527344 -3.445312 8.988281 -6.679688 9.660156 -8.734375 C 9.871094 -9.28125 9.574219 -9.910156 8.988281 -10.121094 C 8.398438 -10.332031 7.769531 -10.039062 7.558594 -9.449219 C 6.761719 -7.265625 4.871094 -3.570312 3.148438 -2.855469 C 2.855469 -2.730469 2.519531 -2.730469 2.226562 -2.855469 C 1.890625 -3.023438 1.636719 -3.316406 1.554688 -3.652344 C 0.839844 -5.710938 2.476562 -9.828125 3.191406 -11.257812 C 3.445312 -11.800781 3.234375 -12.433594 2.6875 -12.726562 C 2.140625 -12.976562 1.46875 -12.769531 1.175781 -12.222656 C 0.882812 -11.59375 -1.679688 -6.175781 -0.546875 -2.941406 C -0.210938 -2.015625 0.421875 -1.261719 1.300781 -0.839844 C 1.722656 -0.628906 2.226562 -0.546875 2.6875 -0.546875 C 3.148438 -0.546875 3.570312 -0.628906 3.988281 -0.796875 C 4.492188 -1.007812 4.914062 -1.300781 5.292969 -1.636719 C 6.007812 -2.226562 7.054688 -2.226562 7.6875 -1.554688 C 7.894531 -1.34375 8.148438 -1.132812 8.441406 -1.007812 C 9.660156 -0.335938 11.800781 -0.253906 14.699219 -3.738281 C 14.953125 -4.03125 15.203125 -4.453125 15.582031 -4.871094 C 15.835938 -5.207031 16.253906 -5.292969 16.632812 -5.125 C 17.429688 -4.789062 18.269531 -4.492188 19.152344 -4.285156 C 26.964844 -2.394531 35.238281 -4.324219 41.371094 -9.535156 C 41.578125 -9.742188 41.707031 -9.996094 41.707031 -10.289062 C 41.746094 -10.585938 41.621094 -10.878906 41.453125 -11.089844 Z M 15.289062 -8.527344 C 15.121094 -8.652344 15.035156 -8.863281 14.992188 -9.03125 C 14.953125 -9.324219 15.289062 -9.785156 16.171875 -10.375 C 15.917969 -9.742188 15.625 -9.113281 15.289062 -8.527344 Z M 15.289062 -8.527344 "/></g></g></g><g fill="#000000" fill-opacity="1"><g transform="translate(136.556498, 254.504748)"><g><path d="M 35.238281 -10.792969 C 35.027344 -11.003906 34.777344 -11.171875 34.480469 -11.171875 C 34.1875 -11.214844 33.894531 -11.128906 33.683594 -10.960938 C 33.515625 -10.835938 17.347656 2.015625 3.863281 -3.527344 C 1.132812 -4.660156 1.007812 -6.132812 1.09375 -6.929688 C 1.09375 -7.054688 1.132812 -7.183594 1.261719 -7.265625 C 1.34375 -7.351562 1.511719 -7.351562 1.636719 -7.308594 C 4.367188 -7.140625 7.097656 -7.855469 9.449219 -9.324219 C 11.464844 -10.625 11.800781 -12.054688 11.675781 -12.976562 C 11.59375 -14.488281 10.375 -15.707031 8.820312 -15.75 C 5.503906 -15.917969 -0.0429688 -11.96875 -0.964844 -7.769531 C -1.34375 -6.214844 -1.300781 -3.277344 3.023438 -1.511719 C 5.671875 -0.421875 8.441406 0.0859375 11.257812 0.0859375 C 23.308594 0.0859375 34.480469 -8.777344 35.070312 -9.238281 C 35.28125 -9.40625 35.449219 -9.703125 35.449219 -9.953125 C 35.488281 -10.246094 35.40625 -10.542969 35.238281 -10.792969 Z M 2.605469 -9.871094 C 4.242188 -12.136719 6.972656 -13.648438 8.695312 -13.523438 C 9.15625 -13.523438 9.40625 -13.355469 9.492188 -12.726562 C 9.535156 -12.304688 9.070312 -11.71875 8.230469 -11.171875 C 6.511719 -10.039062 1.34375 -8.191406 2.605469 -9.871094 Z M 2.605469 -9.871094 "/></g></g><g transform="translate(170.198498, 254.504748)"><g><path d="M 28.894531 -10.753906 C 28.6875 -10.960938 28.390625 -11.089844 28.097656 -11.089844 C 27.804688 -11.089844 27.511719 -10.960938 27.300781 -10.753906 C 27.214844 -10.667969 16.171875 0.210938 8.230469 -2.183594 C 5.417969 -3.023438 3.863281 -5.710938 2.980469 -8.566406 C 2.730469 -9.492188 2.8125 -10.5 3.234375 -11.382812 C 6.175781 -17.347656 13.398438 -32.96875 9.828125 -36.792969 C 8.988281 -37.84375 7.601562 -38.179688 6.382812 -37.675781 C 2.140625 -35.824219 -0.671875 -23.4375 -0.167969 -14.40625 C -0.0859375 -13.019531 0.0859375 -11.632812 0.335938 -10.246094 C 0.335938 -10.078125 0.335938 -9.953125 0.421875 -9.828125 C 1.511719 -4.535156 3.988281 -1.132812 7.601562 -0.0859375 C 8.609375 0.210938 9.617188 0.378906 10.625 0.378906 C 19.152344 0.378906 28.433594 -8.777344 28.855469 -9.199219 C 29.0625 -9.40625 29.191406 -9.660156 29.191406 -9.953125 C 29.191406 -10.289062 29.105469 -10.542969 28.894531 -10.753906 Z M 2.140625 -15.035156 C 0.839844 -22.050781 5.164062 -34.777344 7.265625 -35.65625 C 7.351562 -35.699219 7.433594 -35.742188 7.519531 -35.742188 C 7.6875 -35.742188 7.894531 -35.65625 8.191406 -35.320312 C 9.871094 -33.558594 5.082031 -18.355469 2.855469 -14.785156 C 2.644531 -14.40625 2.226562 -14.617188 2.140625 -15.035156 Z M 2.140625 -15.035156 "/></g></g></g><g fill="#000000" fill-opacity="1"><g transform="translate(197.876491, 254.504748)"><g><path d="M 28.894531 -10.753906 C 28.6875 -10.960938 28.390625 -11.089844 28.097656 -11.089844 C 27.804688 -11.089844 27.511719 -10.960938 27.300781 -10.753906 C 27.214844 -10.667969 16.171875 0.210938 8.230469 -2.183594 C 5.417969 -3.023438 3.863281 -5.710938 2.980469 -8.566406 C 2.730469 -9.492188 2.8125 -10.5 3.234375 -11.382812 C 6.175781 -17.347656 13.398438 -32.96875 9.828125 -36.792969 C 8.988281 -37.84375 7.601562 -38.179688 6.382812 -37.675781 C 2.140625 -35.824219 -0.671875 -23.4375 -0.167969 -14.40625 C -0.0859375 -13.019531 0.0859375 -11.632812 0.335938 -10.246094 C 0.335938 -10.078125 0.335938 -9.953125 0.421875 -9.828125 C 1.511719 -4.535156 3.988281 -1.132812 7.601562 -0.0859375 C 8.609375 0.210938 9.617188 0.378906 10.625 0.378906 C 19.152344 0.378906 28.433594 -8.777344 28.855469 -9.199219 C 29.0625 -9.40625 29.191406 -9.660156 29.191406 -9.953125 C 29.191406 -10.289062 29.105469 -10.542969 28.894531 -10.753906 Z M 2.140625 -15.035156 C 0.839844 -22.050781 5.164062 -34.777344 7.265625 -35.65625 C 7.351562 -35.699219 7.433594 -35.742188 7.519531 -35.742188 C 7.6875 -35.742188 7.894531 -35.65625 8.191406 -35.320312 C 9.871094 -33.558594 5.082031 -18.355469 2.855469 -14.785156 C 2.644531 -14.40625 2.226562 -14.617188 2.140625 -15.035156 Z M 2.140625 -15.035156 "/></g></g></g><g fill="#000000" fill-opacity="1"><g transform="translate(225.554483, 254.504748)"><g><path d="M 27.214844 -11.339844 C 26.753906 -11.761719 26.082031 -11.761719 25.660156 -11.296875 C 25.492188 -11.171875 11.886719 2.6875 2.855469 -3.90625 C 0.0859375 -5.921875 2.773438 -11.171875 2.8125 -11.214844 C 3.066406 -11.761719 2.855469 -12.390625 2.308594 -12.683594 C 1.765625 -12.9375 1.132812 -12.769531 0.839844 -12.222656 C 0.671875 -11.96875 -2.730469 -5.292969 1.554688 -2.140625 C 3.527344 -0.671875 5.964844 0.125 8.441406 0.0859375 C 17.515625 0.0859375 26.710938 -9.28125 27.214844 -9.785156 C 27.425781 -9.996094 27.550781 -10.246094 27.550781 -10.542969 C 27.511719 -10.835938 27.425781 -11.128906 27.214844 -11.339844 Z M 0.378906 -14.65625 C 0.546875 -14.65625 0.714844 -14.699219 0.882812 -14.785156 C 1.890625 -15.289062 2.773438 -15.960938 3.570312 -16.757812 C 3.988281 -17.21875 3.949219 -17.890625 3.527344 -18.3125 C 3.066406 -18.730469 2.394531 -18.730469 1.972656 -18.269531 C 1.34375 -17.640625 0.628906 -17.136719 -0.167969 -16.714844 C -0.589844 -16.507812 -0.839844 -15.960938 -0.714844 -15.496094 C -0.589844 -14.992188 -0.125 -14.65625 0.378906 -14.65625 Z M 0.378906 -14.65625 "/></g></g></g><g fill="#000000" fill-opacity="1"><g transform="translate(251.342471, 254.504748)"><g><path d="M 36.707031 -10.457031 C 36.457031 -10.625 36.203125 -10.753906 35.910156 -10.753906 C 35.617188 -10.710938 35.320312 -10.585938 35.152344 -10.375 C 35.027344 -10.289062 25.789062 -0.421875 17.765625 -3.652344 C 16.042969 -4.578125 14.65625 -5.964844 13.691406 -7.6875 C 13.355469 -8.230469 12.9375 -8.777344 12.433594 -9.28125 C 11.886719 -9.953125 11.046875 -10.332031 10.164062 -10.375 C 8.023438 -10.542969 5.417969 -9.113281 2.308594 -6.175781 C 2.226562 -6.089844 2.101562 -6.046875 1.972656 -6.132812 C 1.847656 -6.175781 1.765625 -6.34375 1.804688 -6.46875 L 2.730469 -10.585938 C 2.898438 -11.171875 2.519531 -11.800781 1.933594 -11.929688 C 1.34375 -12.054688 0.757812 -11.675781 0.589844 -11.089844 L -1.511719 -1.890625 C -1.636719 -1.386719 -1.386719 -0.882812 -0.925781 -0.671875 C -0.460938 -0.421875 0.0859375 -0.546875 0.421875 -0.925781 C 6.046875 -7.519531 8.902344 -8.148438 9.910156 -8.191406 C 10.921875 -8.230469 11.550781 -6.929688 11.886719 -6.425781 C 13.0625 -4.367188 14.824219 -2.6875 16.925781 -1.636719 C 26.335938 2.183594 36.328125 -8.441406 36.75 -8.902344 C 37.171875 -9.324219 37.128906 -10.039062 36.707031 -10.457031 Z M 36.707031 -10.457031 "/></g></g></g><g fill="#000000" fill-opacity="1"><g transform="translate(286.328477, 254.504748)"><g><path d="M 29.230469 -11.046875 C 28.769531 -11.464844 28.054688 -11.425781 27.679688 -10.960938 C 24.359375 -7.519531 18.984375 -7.183594 15.289062 -10.164062 C 14.40625 -10.792969 13.1875 -10.753906 12.390625 -9.996094 C 11.929688 -9.574219 11.425781 -9.113281 10.921875 -8.566406 C 9.324219 -6.761719 9.03125 -8.273438 9.03125 -9.28125 C 9.03125 -10.164062 8.863281 -11.089844 8.566406 -11.929688 C 8.398438 -12.347656 7.980469 -12.640625 7.519531 -12.640625 C 7.054688 -12.601562 6.679688 -12.347656 6.511719 -11.886719 C 5.335938 -8.609375 2.8125 -3.820312 1.050781 -3.484375 C 0.925781 -3.445312 0.589844 -3.402344 0.0859375 -3.949219 C -0.167969 -5.039062 0 -6.214844 0.546875 -7.222656 C 1.804688 -10.625 4.914062 -13.019531 8.527344 -13.355469 C 9.15625 -13.398438 9.617188 -13.945312 9.574219 -14.53125 C 9.535156 -15.160156 8.988281 -15.625 8.398438 -15.582031 C 3.90625 -15.160156 0.0429688 -12.222656 -1.554688 -7.980469 C -2.269531 -6.132812 -2.6875 -3.695312 -1.554688 -2.476562 C -0.796875 -1.554688 0.335938 -1.132812 1.46875 -1.34375 C 3.570312 -1.765625 5.460938 -4.535156 6.804688 -7.054688 C 6.71875 -6.046875 6.59375 -4.914062 6.425781 -3.738281 C 6.382812 -3.484375 6.300781 -3.277344 6.175781 -3.109375 C 1.261719 3.109375 -3.191406 10.625 -3.277344 15.371094 C -3.402344 16.632812 -2.941406 17.890625 -2.101562 18.816406 C -1.679688 19.234375 -1.175781 19.445312 -0.628906 19.445312 C -0.167969 19.445312 0.292969 19.320312 0.671875 19.066406 C 3.445312 17.21875 6.972656 6.425781 8.359375 -2.140625 C 8.398438 -2.308594 8.484375 -2.476562 8.609375 -2.644531 C 10.078125 -4.453125 11.632812 -6.175781 13.273438 -7.8125 C 13.648438 -8.191406 14.238281 -8.230469 14.65625 -7.9375 C 19.277344 -4.828125 25.410156 -5.503906 29.273438 -9.492188 C 29.652344 -9.953125 29.652344 -10.625 29.230469 -11.046875 Z M 1.261719 14.617188 C 0.292969 16.546875 -0.0429688 17.386719 -0.546875 17.21875 C -1.050781 17.09375 -1.09375 16.253906 -1.050781 15.414062 C -0.964844 12.179688 4.660156 1.21875 5.460938 1.554688 C 6.257812 1.890625 2.855469 11.296875 1.261719 14.617188 Z M 1.261719 14.617188 "/></g></g></g><g fill="#000000" fill-opacity="1"><g transform="translate(314.003401, 254.504748)"><g/></g></g><g fill="#000000" fill-opacity="1"><g transform="translate(77.179533, 299.004736)"><g><path d="M 8.859375 0.234375 C 7.796875 0.234375 6.796875 0.0234375 5.859375 -0.390625 C 4.929688 -0.804688 4.117188 -1.375 3.421875 -2.09375 C 2.722656 -2.8125 2.171875 -3.648438 1.765625 -4.609375 C 1.359375 -5.566406 1.15625 -6.597656 1.15625 -7.703125 C 1.15625 -8.796875 1.359375 -9.820312 1.765625 -10.78125 C 2.171875 -11.75 2.722656 -12.59375 3.421875 -13.3125 C 4.117188 -14.03125 4.929688 -14.597656 5.859375 -15.015625 C 6.796875 -15.429688 7.796875 -15.640625 8.859375 -15.640625 C 9.910156 -15.640625 10.90625 -15.429688 11.84375 -15.015625 C 12.78125 -14.597656 13.597656 -14.03125 14.296875 -13.3125 C 14.992188 -12.59375 15.546875 -11.753906 15.953125 -10.796875 C 16.359375 -9.835938 16.5625 -8.804688 16.5625 -7.703125 C 16.5625 -6.617188 16.359375 -5.597656 15.953125 -4.640625 C 15.546875 -3.679688 14.992188 -2.835938 14.296875 -2.109375 C 13.597656 -1.390625 12.78125 -0.816406 11.84375 -0.390625 C 10.90625 0.0234375 9.910156 0.234375 8.859375 0.234375 Z M 8.859375 -1.359375 C 9.703125 -1.359375 10.488281 -1.519531 11.21875 -1.84375 C 11.957031 -2.164062 12.59375 -2.609375 13.125 -3.171875 C 13.65625 -3.742188 14.070312 -4.414062 14.375 -5.1875 C 14.675781 -5.957031 14.828125 -6.796875 14.828125 -7.703125 C 14.828125 -8.609375 14.675781 -9.445312 14.375 -10.21875 C 14.070312 -11 13.65625 -11.671875 13.125 -12.234375 C 12.59375 -12.804688 11.957031 -13.25 11.21875 -13.5625 C 10.488281 -13.882812 9.703125 -14.046875 8.859375 -14.046875 C 7.992188 -14.046875 7.195312 -13.882812 6.46875 -13.5625 C 5.738281 -13.25 5.109375 -12.804688 4.578125 -12.234375 C 4.054688 -11.671875 3.640625 -11 3.328125 -10.21875 C 3.023438 -9.445312 2.875 -8.609375 2.875 -7.703125 C 2.875 -6.796875 3.023438 -5.957031 3.328125 -5.1875 C 3.640625 -4.414062 4.054688 -3.742188 4.578125 -3.171875 C 5.109375 -2.609375 5.738281 -2.164062 6.46875 -1.84375 C 7.195312 -1.519531 7.992188 -1.359375 8.859375 -1.359375 Z M 8.859375 -1.359375 "/></g></g></g><g fill="#000000" fill-opacity="1"><g transform="translate(99.82857, 299.004736)"><g><path d="M 3.640625 -11.984375 L 3.640625 0 L 2.0625 0 L 2.0625 -15.875 L 2.53125 -15.875 L 12.921875 -3.421875 L 12.921875 -15.40625 L 14.484375 -15.40625 L 14.484375 0.453125 L 14.03125 0.453125 Z M 3.640625 -11.984375 "/></g></g></g><g fill="#000000" fill-opacity="1"><g transform="translate(121.328001, 299.004736)"><g/></g></g><g fill="#000000" fill-opacity="1"><g transform="translate(131.331307, 299.004736)"><g><path d="M 5.75 -13.921875 L 0.6875 -13.921875 L 0.6875 -15.40625 L 12.421875 -15.40625 L 12.421875 -13.921875 L 7.359375 -13.921875 L 7.359375 0 L 5.75 0 Z M 5.75 -13.921875 "/></g></g></g><g fill="#000000" fill-opacity="1"><g transform="translate(149.381889, 299.004736)"><g><path d="M 2.0625 -15.40625 L 3.6875 -15.40625 L 3.6875 -8.515625 L 11.953125 -8.515625 L 11.953125 -15.40625 L 13.5625 -15.40625 L 13.5625 0 L 11.953125 0 L 11.953125 -7.015625 L 3.6875 -7.015625 L 3.6875 0 L 2.0625 0 Z M 2.0625 -15.40625 "/></g></g></g><g fill="#000000" fill-opacity="1"><g transform="translate(169.961626, 299.004736)"><g><path d="M 2.0625 -15.40625 L 10 -15.40625 L 10 -13.921875 L 3.6875 -13.921875 L 3.6875 -8.734375 L 8.515625 -8.734375 L 8.515625 -7.25 L 3.6875 -7.25 L 3.6875 -1.5 L 10.125 -1.5 L 10.125 0 L 2.0625 0 Z M 2.0625 -15.40625 "/></g></g></g><g fill="#000000" fill-opacity="1"><g transform="translate(186.402762, 299.004736)"><g/></g></g><g fill="#000000" fill-opacity="1"><g transform="translate(196.406065, 299.004736)"><g><path d="M 2.0625 -15.40625 L 5.75 -15.40625 C 6.519531 -15.40625 7.226562 -15.296875 7.875 -15.078125 C 8.53125 -14.859375 9.09375 -14.546875 9.5625 -14.140625 C 10.03125 -13.734375 10.394531 -13.253906 10.65625 -12.703125 C 10.914062 -12.148438 11.046875 -11.539062 11.046875 -10.875 C 11.046875 -10.34375 10.957031 -9.84375 10.78125 -9.375 C 10.613281 -8.90625 10.375 -8.484375 10.0625 -8.109375 C 9.757812 -7.734375 9.394531 -7.410156 8.96875 -7.140625 C 8.539062 -6.867188 8.070312 -6.664062 7.5625 -6.53125 L 11.953125 0 L 10.03125 0 L 5.75 -6.34375 L 3.6875 -6.34375 L 3.6875 0 L 2.0625 0 Z M 5.75 -7.84375 C 6.851562 -7.84375 7.742188 -8.117188 8.421875 -8.671875 C 9.097656 -9.222656 9.4375 -9.96875 9.4375 -10.90625 C 9.4375 -11.820312 9.097656 -12.550781 8.421875 -13.09375 C 7.742188 -13.644531 6.851562 -13.921875 5.75 -13.921875 L 3.6875 -13.921875 L 3.6875 -7.84375 Z M 5.75 -7.84375 "/></g></g></g><g fill="#000000" fill-opacity="1"><g transform="translate(214.226735, 299.004736)"><g><path d="M 2.0625 -15.40625 L 3.6875 -15.40625 L 3.6875 0 L 2.0625 0 Z M 2.0625 -15.40625 "/></g></g></g><g fill="#000000" fill-opacity="1"><g transform="translate(224.919796, 299.004736)"><g><path d="M 2.0625 -15.40625 L 7.109375 -15.40625 C 8.285156 -15.40625 9.375 -15.210938 10.375 -14.828125 C 11.375 -14.453125 12.234375 -13.914062 12.953125 -13.21875 C 13.679688 -12.53125 14.253906 -11.710938 14.671875 -10.765625 C 15.085938 -9.828125 15.296875 -8.804688 15.296875 -7.703125 C 15.296875 -6.597656 15.085938 -5.570312 14.671875 -4.625 C 14.253906 -3.6875 13.679688 -2.875 12.953125 -2.1875 C 12.234375 -1.507812 11.375 -0.972656 10.375 -0.578125 C 9.375 -0.191406 8.285156 0 7.109375 0 L 2.0625 0 Z M 7.078125 -1.5 C 8.015625 -1.5 8.878906 -1.648438 9.671875 -1.953125 C 10.472656 -2.265625 11.160156 -2.695312 11.734375 -3.25 C 12.316406 -3.800781 12.765625 -4.453125 13.078125 -5.203125 C 13.398438 -5.960938 13.5625 -6.796875 13.5625 -7.703125 C 13.5625 -8.609375 13.398438 -9.441406 13.078125 -10.203125 C 12.765625 -10.960938 12.316406 -11.617188 11.734375 -12.171875 C 11.160156 -12.722656 10.472656 -13.148438 9.671875 -13.453125 C 8.878906 -13.765625 8.015625 -13.921875 7.078125 -13.921875 L 3.6875 -13.921875 L 3.6875 -1.5 Z M 7.078125 -1.5 "/></g></g></g><g fill="#000000" fill-opacity="1"><g transform="translate(246.304259, 299.004736)"><g><path d="M 8.78125 0.234375 C 7.726562 0.234375 6.738281 0.03125 5.8125 -0.375 C 4.882812 -0.78125 4.070312 -1.335938 3.375 -2.046875 C 2.6875 -2.765625 2.144531 -3.597656 1.75 -4.546875 C 1.351562 -5.503906 1.15625 -6.535156 1.15625 -7.640625 C 1.15625 -8.742188 1.359375 -9.78125 1.765625 -10.75 C 2.171875 -11.726562 2.722656 -12.578125 3.421875 -13.296875 C 4.117188 -14.023438 4.929688 -14.597656 5.859375 -15.015625 C 6.796875 -15.429688 7.796875 -15.640625 8.859375 -15.640625 C 10.003906 -15.640625 11.070312 -15.394531 12.0625 -14.90625 C 13.0625 -14.425781 13.925781 -13.773438 14.65625 -12.953125 L 13.4375 -11.90625 C 12.832031 -12.601562 12.132812 -13.132812 11.34375 -13.5 C 10.5625 -13.863281 9.722656 -14.046875 8.828125 -14.046875 C 7.972656 -14.046875 7.179688 -13.882812 6.453125 -13.5625 C 5.734375 -13.25 5.101562 -12.804688 4.5625 -12.234375 C 4.03125 -11.671875 3.613281 -11 3.3125 -10.21875 C 3.019531 -9.445312 2.875 -8.609375 2.875 -7.703125 C 2.875 -6.796875 3.019531 -5.957031 3.3125 -5.1875 C 3.613281 -4.414062 4.03125 -3.742188 4.5625 -3.171875 C 5.101562 -2.609375 5.742188 -2.164062 6.484375 -1.84375 C 7.222656 -1.519531 8.019531 -1.359375 8.875 -1.359375 C 9.84375 -1.359375 10.722656 -1.546875 11.515625 -1.921875 C 12.304688 -2.304688 12.96875 -2.820312 13.5 -3.46875 L 13.5 -6.78125 L 8.859375 -6.78125 L 8.859375 -8.28125 L 15.109375 -8.28125 L 15.109375 -3.171875 C 14.359375 -2.085938 13.429688 -1.25 12.328125 -0.65625 C 11.234375 -0.0625 10.050781 0.234375 8.78125 0.234375 Z M 8.78125 0.234375 "/></g></g></g><g fill="#000000" fill-opacity="1"><g transform="translate(267.849671, 299.004736)"><g><path d="M 2.0625 -15.40625 L 10 -15.40625 L 10 -13.921875 L 3.6875 -13.921875 L 3.6875 -8.734375 L 8.515625 -8.734375 L 8.515625 -7.25 L 3.6875 -7.25 L 3.6875 -1.5 L 10.125 -1.5 L 10.125 0 L 2.0625 0 Z M 2.0625 -15.40625 "/></g></g></g></svg>